<?xml version="1.0" encoding="UTF-8" standalone="no"?>
<svg width="148px" height="118px" viewBox="0 0 148 118" version="1.1" xmlns="http://www.w3.org/2000/svg" xmlns:xlink="http://www.w3.org/1999/xlink" xmlns:sketch="http://www.bohemiancoding.com/sketch/ns">
    <!-- Generator: Sketch 3.4 (15575) - http://www.bohemiancoding.com/sketch -->
    <title>Page 1</title>
    <desc>Created with Sketch.</desc>
    <defs>
        <path id="path-1" d="M0,0.160200456 L147.751898,0.160200456 L147.751898,118 L0,118 L0,0.160200456 Z"></path>
    </defs>
    <g id="Page-1" stroke="none" stroke-width="1" fill="none" fill-rule="evenodd" sketch:type="MSPage">
        <g id="iPad-Landscape-Copy-8" sketch:type="MSArtboardGroup" transform="translate(-438.000000, -157.000000)">
            <g id="Page-1" sketch:type="MSLayerGroup" transform="translate(438.000000, 157.000000)">
                <path d="M70.5123935,54.9848014 L70.5123935,43.167061 L65.1305753,43.167061 L65.1305753,54.9848014 C65.1305753,56.4693435 66.3352953,57.6727285 67.8214844,57.6727285 L67.8214844,57.6727285 C69.3076735,57.6727285 70.5123935,56.4693435 70.5123935,54.9848014 L70.5123935,54.9848014 Z M98.5341753,39.1351704 L98.5341753,39.1351704 C98.5341753,37.650897 97.3294553,36.4472433 95.8432662,36.4472433 L83.9669389,36.4472433 L83.9669389,41.8230975 L95.8432662,41.8230975 C97.3294553,41.8230975 98.5341753,40.6197125 98.5341753,39.1351704 L98.5341753,39.1351704 Z M63.7851207,24.3515713 L51.9545389,24.3515713 C50.4683498,24.3515713 49.2636298,25.5552251 49.2636298,27.0394984 C49.2636298,28.5240405 50.4683498,29.7274255 51.9545389,29.7274255 L63.7851207,29.7274255 L63.7851207,24.3515713 Z M77.2396662,31.0713891 L77.2396662,55.262733 L77.2396662,57.0477854 L77.2396662,63.3265144 C77.2396662,64.8110565 78.4443862,66.0144415 79.9305753,66.0144415 C81.4167644,66.0144415 82.6214844,64.8110565 82.6214844,63.3265144 L82.6214844,57.0477854 L82.6214844,55.262733 L82.6214844,31.0713891 L77.2396662,31.0713891 Z M67.8214844,0.160227335 C66.3352953,0.160227335 65.1305753,1.36388109 65.1305753,2.84815444 L65.1305753,7.4036533 L65.1305753,10.9119358 L65.1305753,35.1032797 L70.5123935,35.1032797 L70.5123935,10.9119358 L70.5123935,7.4036533 L70.5123935,2.84815444 C70.5123935,1.36388109 69.3076735,0.160227335 67.8214844,0.160227335 L67.8214844,0.160227335 Z M75.8942116,36.4472433 L48.8174771,36.4472433 L48.8174771,36.4472433 L43.6033025,36.4472433 C42.1171135,36.4472433 40.9123935,37.650897 40.9123935,39.1351704 C40.9123935,40.6197125 42.1171135,41.8230975 43.6033025,41.8230975 L51.6760298,41.8230975 L51.6760298,41.8230975 L75.8942116,41.8230975 L75.8942116,36.4472433 Z M104.148757,24.3515713 L98.5341753,24.3515713 L98.5341753,24.3515713 L71.857848,24.3515713 L71.857848,29.7274255 L96.0760298,29.7274255 L96.0760298,29.7274255 L104.148757,29.7274255 C105.634946,29.7274255 106.839666,28.5240405 106.839666,27.0394984 L106.839666,27.0394984 C106.839666,25.5552251 105.634946,24.3515713 104.148757,24.3515713 L104.148757,24.3515713 Z M82.6214844,23.0076077 L77.2396662,23.0076077 L77.2396662,11.1901362 C77.2396662,9.70559408 78.4443862,8.50220911 79.9305753,8.50220911 L79.9305753,8.50220911 C81.4167644,8.50220911 82.6214844,9.70559408 82.6214844,11.1901362 L82.6214844,23.0076077 Z" id="Fill-1" fill="#6A55A1" sketch:type="MSShapeGroup"></path>
                <g id="Group-5">
                    <mask id="mask-2" sketch:name="Clip 4" fill="white">
                        <use xlink:href="#path-1"></use>
                    </mask>
                    <g id="Clip-4"></g>
                    <path d="M140.013974,116.8082 C139.428163,116.8082 138.953217,116.333781 138.953217,115.748619 L138.953217,95.878118 C138.953217,90.8132569 136.939879,89.100241 133.211625,89.100241 C130.150447,89.100241 127.479181,90.4616761 125.74193,91.974979 C125.511857,92.1754984 125.382156,92.4666009 125.382156,92.7716806 L125.382156,115.748619 C125.382156,116.333781 124.90721,116.8082 124.321399,116.8082 L117.644177,116.8082 C117.058367,116.8082 116.583421,116.333781 116.583421,115.748619 L116.583421,70.6667057 C116.583421,70.1366465 116.975756,69.6880314 117.501559,69.6168014 L124.178781,68.7123139 C124.81545,68.6260314 125.382156,69.12061 125.382156,69.7622182 L125.382156,86.7913116 C128.439297,83.4394665 132.540512,81.3539039 137.014417,81.3539039 C143.651007,81.3539039 147.751952,85.8228515 147.751952,93.1969107 L147.751952,115.748619 C147.751952,116.333781 147.277007,116.8082 146.691196,116.8082 L140.013974,116.8082 Z M100.196592,118.000027 C96.1015665,118.000027 91.1941556,116.939102 87.7619011,115.2742 C87.2274865,115.014815 86.9597411,114.407075 87.1214647,113.83589 L88.3762356,109.400542 C88.5858575,108.660018 89.4135811,108.298492 90.1072975,108.633676 C93.3011375,110.176009 97.0896684,111.147426 100.420476,111.147426 C103.850308,111.147426 106.08753,109.732232 106.08753,107.348578 C106.08753,104.667371 103.179196,103.699179 99.1527884,102.730719 C92.6655447,101.24107 87.5205265,98.5595941 87.5205265,92.0795394 C87.5205265,85.5994847 92.9636975,81.3539039 101.240665,81.3539039 C105.082745,81.3539039 109.595399,82.2669927 112.795159,83.6528879 C113.358636,83.8969517 113.650868,84.5229699 113.483763,85.1135075 L112.224148,89.56579 C112.020177,90.2872296 111.225821,90.6533253 110.537756,90.3538902 C107.403654,88.9894984 103.695043,88.1320497 101.016781,88.1320497 C97.8105629,88.1320497 95.8717629,89.3238765 95.8717629,91.5583503 C95.8717629,94.1653708 98.7798284,95.0588378 102.806505,96.0272979 C109.368287,97.5914027 114.513305,100.123699 114.513305,106.827389 C114.513305,113.232988 108.995596,118.000027 100.196592,118.000027 L100.196592,118.000027 Z M77.3994793,96.1017535 L62.6352684,96.1762091 C63.0827665,91.9306282 65.990832,87.9831385 70.8376975,87.9831385 C75.3864102,87.9831385 77.3994793,90.8879813 77.3994793,95.5058401 L77.3994793,96.1017535 Z M71.5088102,81.3539039 C61.2187738,81.3539039 53.7619956,88.8024187 53.7619956,99.9750565 C53.7619956,110.924059 61.0696975,117.925571 72.1051156,117.925571 C76.5539956,117.925571 80.9334502,116.959799 84.1808393,115.294359 C84.4082211,115.177703 84.5320029,114.925845 84.4932538,114.673717 L83.573232,108.668888 C83.5094575,108.253603 83.0509265,108.034806 82.6836175,108.239626 C79.6859447,109.912861 76.0674793,110.924059 72.7016902,110.924059 C66.5965556,110.924059 62.7959156,107.136501 62.4135375,101.56389 C62.412192,101.547225 62.4116538,101.530829 62.4116538,101.514164 L62.4116538,101.315526 L84.1490865,101.262036 C84.5586429,101.247521 84.9194938,100.974697 85.0214793,100.566132 C85.393632,99.0735257 85.6764465,96.9704916 85.6764465,95.2824733 C85.6764465,86.8657672 80.6056975,81.3539039 71.5088102,81.3539039 L71.5088102,81.3539039 Z M44.3556538,116.8082 C43.7028393,116.8082 43.1738065,116.279485 43.1738065,115.627394 L43.1738065,95.9528424 C43.1738065,90.8879813 41.1604684,89.100241 37.506752,89.100241 C34.6971738,89.100241 32.4543011,90.4213572 30.7784029,91.7913936 C30.5047375,92.0150292 30.3481265,92.3504825 30.3481265,92.7036761 L30.3481265,94.2395576 L30.3481265,115.627394 C30.3481265,116.279485 29.8190938,116.8082 29.1662793,116.8082 L22.7315084,116.8082 C22.0786938,116.8082 21.5496611,116.279485 21.5496611,115.627394 L21.5496611,95.9528424 C21.5496611,90.8879813 19.6108611,89.100241 15.9571447,89.100241 C13.0754502,89.100241 10.8250429,90.1721863 9.206192,91.5618446 C8.945712,91.7852114 8.79878836,92.1128697 8.79878836,92.4555804 L8.79878836,115.627394 C8.79878836,116.279485 8.26948655,116.8082 7.616672,116.8082 L1.18190109,116.8082 C0.529086545,116.8082 5.38181816e-05,116.279485 5.38181816e-05,115.627394 L5.38181816e-05,83.651544 C5.38181816e-05,83.0610064 0.437057455,82.5610519 1.02313745,82.4817581 L7.45790836,81.6100633 C8.167232,81.5141043 8.79878836,82.0648606 8.79878836,82.780118 L8.79878836,86.2698538 C12.0050065,83.0671886 15.5096465,81.3539039 19.7599375,81.3539039 C23.4136538,81.3539039 26.5536756,82.8938173 28.4305847,85.8733845 C28.8352975,86.5160679 29.7141484,86.6332615 30.2655156,86.1101909 C33.4588175,83.0814346 37.1830356,81.3539039 41.3840829,81.3539039 C47.8713265,81.3539039 51.9725411,85.8228515 51.9725411,93.2713663 L51.9725411,115.627394 C51.9725411,116.279485 51.4432393,116.8082 50.7904247,116.8082 L44.3556538,116.8082 Z" id="Fill-3" fill="#222222" sketch:type="MSShapeGroup" mask="url(#mask-2)"></path>
                </g>
            </g>
        </g>
    </g>
</svg>