<?xml version="1.0" encoding="UTF-8" standalone="no"?>
<svg width="16px" height="16px" viewBox="0 0 16 16" version="1.1" xmlns="http://www.w3.org/2000/svg" xmlns:xlink="http://www.w3.org/1999/xlink" xmlns:sketch="http://www.bohemiancoding.com/sketch/ns">
    <!-- Generator: Sketch 3.4.2 (15855) - http://www.bohemiancoding.com/sketch -->
    <title>Fill 211</title>
    <desc>Created with Sketch.</desc>
    <defs></defs>
    <g id="Page-1" stroke="none" stroke-width="1" fill="none" fill-rule="evenodd" sketch:type="MSPage">
        <g id="iPad-Landscape-Copy-7" sketch:type="MSArtboardGroup" transform="translate(-869.000000, -52.000000)" fill="currentColor">
            <path d="M875.00003,53.3333401 C877.57271,53.3333401 879.666721,55.4266841 879.666721,58.0000305 C879.666721,60.5727102 877.57271,62.6667209 875.00003,62.6667209 C872.426684,62.6667209 870.33334,60.5727102 870.33334,58.0000305 C870.33334,55.4266841 872.426684,53.3333401 875.00003,53.3333401 M875.00003,64.000061 C876.420704,64.000061 877.726044,63.5007251 878.755383,62.6720542 L883.860742,67.8040803 C884.120077,68.0647483 884.541412,68.0660817 884.803414,67.8054137 C885.064748,67.546079 885.065415,67.1234102 884.80608,66.8627422 L879.694054,61.7253828 C880.509392,60.7013776 881.000061,59.407371 881.000061,58.0000305 C881.000061,54.691347 878.308714,52 875.00003,52 C871.691347,52 869,54.691347 869,58.0000305 C869,61.3080473 871.691347,64.000061 875.00003,64.000061" id="Fill-211" sketch:type="MSShapeGroup"></path>
        </g>
    </g>
</svg>
