<?xml version="1.0" encoding="UTF-8" standalone="no"?>
<svg width="16px" height="16px" viewBox="0 0 16 16" version="1.1" xmlns="http://www.w3.org/2000/svg" xmlns:xlink="http://www.w3.org/1999/xlink" xmlns:sketch="http://www.bohemiancoding.com/sketch/ns">
    <!-- Generator: Sketch 3.4.2 (15855) - http://www.bohemiancoding.com/sketch -->
    <title>Fill 9 + Fill 11</title>
    <desc>Created with Sketch.</desc>
    <defs></defs>
    <g id="Version-1" stroke="none" stroke-width="1" fill="none" fill-rule="evenodd" sketch:type="MSPage">
        <g id="Team-Mesh" sketch:type="MSArtboardGroup" transform="translate(-367.000000, -695.000000)" fill="currentColor">
            <g id="Group" sketch:type="MSLayerGroup" transform="translate(350.000000, 678.000000)">
                <g id="Fill-9-+-Fill-11" transform="translate(17.000000, 17.000000)" sketch:type="MSShapeGroup">
                    <path d="M15.3333333,11 C14.9646667,11 14.6666667,11.2987135 14.6666667,11.6667713 L14.6666667,12.9423047 C14.6666667,13.6384139 14.0793333,14.5218858 13.42,14.5218858 L2.57933333,14.5218858 C1.92,14.5218858 1.33333333,13.6384139 1.33333333,12.9423047 L1.33333333,11.6667713 C1.33333333,11.2987135 1.03466667,11 0.666666667,11 C0.298,11 0,11.2987135 0,11.6667713 L0,12.9423047 C0,14.3178538 1.10266667,15.8554284 2.57933333,15.8554284 L13.42,15.8554284 C14.8966667,15.8554284 16,14.3178538 16,12.9423047 L16,11.6667713 C16,11.2987135 15.7013333,11 15.3333333,11" id="Fill-9"></path>
                    <path d="M4.13816667,5.80411638 L7.66683333,2.27489606 L7.66683333,11.7390475 C7.66683333,12.107772 7.96483333,12.4058187 8.3335,12.4058187 C8.7015,12.4058187 9.00016667,12.107772 9.00016667,11.7390475 L9.00016667,2.27489606 L12.5288333,5.80411638 C12.6581667,5.93413678 12.8295,5.9988136 13.0001667,5.9988136 C13.1708333,5.9988136 13.3415,5.93413678 13.4715,5.80411638 C13.7321667,5.54274205 13.7321667,5.12134261 13.4715,4.86130181 L8.80483333,0.193902926 C8.5335,-0.0774729808 8.1015,-0.0514689013 7.8615,0.193902926 L3.1955,4.86130181 C2.93483333,5.12134261 2.93483333,5.54274205 3.1955,5.80411638 C3.4555,6.06482395 3.8775,6.06482395 4.13816667,5.80411638" id="Fill-11"></path>
                </g>
            </g>
        </g>
    </g>
</svg>
